<?xml version="1.0" encoding="UTF-8"?>
<!-- Created with Inkscape (http://www.inkscape.org/) -->
<svg width="48" height="48" version="1.1" viewBox="0 0 12.7 12.7" xmlns="http://www.w3.org/2000/svg">
 <path d="m5.2917 1.0583c-0.58632 0-1.0583 0.47202-1.0583 1.0583 0 0.097869 0.013601 0.19232 0.038241 0.28215h-2.1549c-1.1726 0-1.5875-0.1143-1.5875 1.0583v0.060978c0 0.06282 0.0039928 0.12464 0.0093018 0.18604h11.623c0.0053-0.061397 0.009301-0.12322 0.009301-0.18604v-0.060978c0-1.1726-0.41487-1.0583-1.5875-1.0583h-2.1549c0.02464-0.089836 0.038241-0.18428 0.038241-0.28215 0-0.58632-0.47202-1.0583-1.0583-1.0583h-2.1167zm-3.175 3.3915v6.1335c0 1.1726 0.94403 2.1167 2.1167 2.1167h4.2333c1.1726 0 2.1167-0.94403 2.1167-2.1167v-6.1335h-8.4667zm1.2299 0.70848h0.7152c0.19816 0 0.3576 0.18613 0.3576 0.41755v5.687c0 0.23141-0.15944 0.41755-0.3576 0.41755h-0.7152c-0.19816 0-0.3576-0.18613-0.3576-0.41755v-5.687c0-0.23141 0.15944-0.41755 0.3576-0.41755zm2.6458 0h0.7152c0.19816 0 0.3576 0.18613 0.3576 0.41755v5.687c0 0.23141-0.15944 0.41755-0.3576 0.41755h-0.7152c-0.19816 0-0.3576-0.18613-0.3576-0.41755v-5.687c0-0.23141 0.15944-0.41755 0.3576-0.41755zm2.6458 0h0.7152c0.19816 0 0.3576 0.18613 0.3576 0.41755v5.687c0 0.23141-0.15944 0.41755-0.3576 0.41755h-0.7152c-0.19816 0-0.3576-0.18613-0.3576-0.41755v-5.687c0-0.23141 0.15944-0.41755 0.3576-0.41755z" fill="#ffbf00" stroke-linecap="square" stroke-linejoin="bevel" stroke-width=".8" style="paint-order:markers fill stroke"/>
</svg>
